<?xml version="1.0" encoding="utf-8"?>
<!-- Generator: Adobe Illustrator 17.0.0, SVG Export Plug-In . SVG Version: 6.00 Build 0)  -->
<!DOCTYPE svg PUBLIC "-//W3C//DTD SVG 1.1//EN" "http://www.w3.org/Graphics/SVG/1.1/DTD/svg11.dtd">
<svg version="1.1" id="Шар_1" xmlns="http://www.w3.org/2000/svg" xmlns:xlink="http://www.w3.org/1999/xlink" x="0px" y="0px"
	 width="241px" height="60px" viewBox="0 0 241 60" enable-background="new 0 0 241 60" xml:space="preserve">
<g>
	<g>
		<g>
			<polygon fill="#FFFFFF" points="79.456,4.8 74.656,4.8 74.656,38.4 97.648,38.4 97.648,34.225 79.456,34.225 			"/>
			<path fill="#FFFFFF" d="M111.041,10.368c2.016-1.12,4.272-1.68,6.768-1.68c3.775,0,6.928,1.328,9.456,3.984l3.12-3.024
				c-1.536-1.728-3.392-3.032-5.568-3.912c-2.176-0.88-4.577-1.32-7.2-1.32c-3.36,0-6.4,0.744-9.12,2.232
				c-2.72,1.488-4.848,3.536-6.384,6.144c-1.536,2.608-2.304,5.544-2.304,8.808c0,3.264,0.768,6.2,2.304,8.808
				c1.536,2.609,3.656,4.656,6.36,6.144c2.704,1.488,5.736,2.232,9.096,2.232c2.624,0,5.032-0.448,7.224-1.344
				c2.191-0.896,4.056-2.208,5.592-3.936l-3.12-3.024c-2.56,2.688-5.712,4.032-9.456,4.032c-2.496,0-4.752-0.559-6.768-1.68
				c-2.016-1.12-3.593-2.664-4.728-4.632c-1.136-1.968-1.704-4.167-1.704-6.6c0-2.432,0.568-4.632,1.704-6.6
				C107.448,13.032,109.024,11.489,111.041,10.368z"/>
			<path fill="#FFFFFF" d="M160.816,6.648c-2.72-1.488-5.76-2.232-9.12-2.232c-3.392,0-6.449,0.744-9.168,2.232
				c-2.72,1.488-4.856,3.544-6.408,6.168c-1.552,2.624-2.328,5.552-2.328,8.784c0,3.232,0.775,6.16,2.328,8.784
				c1.552,2.625,3.688,4.68,6.408,6.168c2.719,1.488,5.776,2.232,9.168,2.232c3.36,0,6.4-0.744,9.12-2.232
				c2.719-1.488,4.848-3.535,6.384-6.144c1.536-2.607,2.304-5.544,2.304-8.808c0-3.264-0.768-6.2-2.304-8.808
				C165.664,10.185,163.535,8.136,160.816,6.648z M163,28.2c-1.136,1.968-2.688,3.512-4.656,4.632
				c-1.968,1.121-4.184,1.68-6.648,1.68c-2.464,0-4.696-0.559-6.696-1.68c-2-1.12-3.569-2.664-4.704-4.632
				c-1.136-1.968-1.704-4.167-1.704-6.6c0-2.432,0.568-4.632,1.704-6.6c1.135-1.968,2.704-3.512,4.704-4.632
				c2-1.12,4.231-1.68,6.696-1.68c2.464,0,4.68,0.56,6.648,1.68c1.968,1.121,3.52,2.664,4.656,4.632
				c1.135,1.968,1.704,4.168,1.704,6.6C164.704,24.033,164.135,26.232,163,28.2z"/>
			<polygon fill="#FFFFFF" points="187.984,32.4 175.889,4.8 170.705,4.8 185.488,38.4 190.24,38.4 204.977,4.8 200.176,4.8 			"/>
			<polygon fill="#FFFFFF" points="214.047,34.225 214.047,23.376 230.896,23.376 230.896,19.296 214.047,19.296 214.047,8.977 
				232.959,8.977 232.959,4.8 209.248,4.8 209.248,38.4 233.631,38.4 233.631,34.225 			"/>
			<path fill="#FFFFFF" d="M60.056,5.184l-12.912,14.96c1.422,0.656,2.427,1.558,3.142,2.215c0.324,0.298,0.546,0.496,0.727,0.636
				l10.043-12.051v27.84h4.8v-33.6h-4.8H60.056z"/>
			<path fill="#FFFFFF" d="M43.227,27.304c-0.576,0-0.684,0.062-1.646,0.947c-0.772,0.71-1.87,1.715-3.484,2.376l-7.041,8.158h6.8
				l8.037-9.644c-0.391-0.316-0.731-0.625-1.021-0.891C43.911,27.366,43.803,27.304,43.227,27.304z"/>
		</g>
		<path fill="#FFFFFF" d="M23.863,36.602l3.78-4.38c-0.544-0.131-1.141-0.214-1.817-0.214c-2.955,0-4.543,1.461-5.703,2.528
			c-0.999,0.918-1.601,1.472-2.997,1.472c-1.394,0-1.996-0.554-2.994-1.472c-1.16-1.067-2.748-2.528-5.703-2.528v4
			c1.395,0,1.997,0.554,2.995,1.472c1.16,1.067,2.748,2.528,5.702,2.528c2.955,0,4.544-1.461,5.704-2.528
			C23.211,37.131,23.533,36.835,23.863,36.602z"/>
		<path fill="#FFFFFF" d="M25.827,14.6c1.395,0,1.997,0.554,2.995,1.472c1.16,1.067,2.749,2.528,5.703,2.528
			c2.956,0,4.544-1.461,5.705-2.527c0.81-0.745,1.366-1.244,2.29-1.408l3.164-3.666c-0.699-0.241-1.503-0.399-2.456-0.399
			c-2.956,0-4.544,1.461-5.705,2.527c-0.999,0.918-1.602,1.473-2.998,1.473c-1.395,0-1.997-0.554-2.995-1.472
			c-1.16-1.067-2.749-2.528-5.703-2.528c-2.955,0-4.543,1.461-5.703,2.528c-0.999,0.918-1.601,1.472-2.997,1.472
			c-1.394,0-1.996-0.554-2.994-1.472c-1.16-1.067-2.748-2.528-5.703-2.528v4c1.395,0,1.997,0.554,2.995,1.472
			c1.16,1.067,2.748,2.528,5.702,2.528c2.955,0,4.544-1.461,5.704-2.528C23.829,15.155,24.432,14.6,25.827,14.6z"/>
		<path fill="#FF8066" d="M61.056,27.387l-6.933-5.298v3.214H51.93c-0.99,0-1.581-0.283-2.198-0.773
			c-0.253-0.201-0.51-0.433-0.8-0.7c-0.18-0.166-0.376-0.342-0.581-0.52c-0.023-0.02-0.047-0.039-0.071-0.06
			c-0.656-0.563-1.459-1.135-2.511-1.515c0,0,0,0,0,0l0,0c-0.72-0.26-1.548-0.433-2.542-0.433c-2.956,0-4.544,1.461-5.705,2.527
			c-0.999,0.918-1.602,1.473-2.998,1.473c-1.395,0-1.997-0.554-2.995-1.472c-1.16-1.067-2.749-2.528-5.703-2.528
			c-2.955,0-4.543,1.461-5.703,2.528c-0.999,0.918-1.601,1.472-2.997,1.472c-1.394,0-1.996-0.554-2.994-1.472
			c-1.16-1.067-2.748-2.528-5.703-2.528v4c1.395,0,1.997,0.554,2.995,1.472c1.16,1.067,2.748,2.528,5.702,2.528
			c2.955,0,4.544-1.461,5.704-2.528c0.998-0.918,1.601-1.472,2.996-1.472c1.395,0,1.997,0.554,2.995,1.472
			c1.16,1.067,2.749,2.528,5.703,2.528c2.956,0,4.544-1.461,5.705-2.527c0.85-0.782,1.418-1.295,2.427-1.432
			c0.177-0.024,0.363-0.04,0.571-0.04c1.396,0,1.999,0.554,2.998,1.473c0.28,0.257,0.587,0.537,0.93,0.814
			c0.006,0.005,0.011,0.009,0.017,0.014l0,0c1.059,0.852,2.486,1.666,4.655,1.692v0.006h2.296v3.382L61.056,27.387z"/>
	</g>
	<g>
		<path fill="#FFFFFF" d="M63.575,55.558c-0.749-0.196-1.357-0.458-1.825-0.786l0.912-2.049c0.44,0.29,0.95,0.523,1.53,0.701
			c0.58,0.179,1.151,0.268,1.713,0.268c1.067,0,1.6-0.268,1.6-0.801c0-0.28-0.152-0.488-0.456-0.625
			c-0.304-0.135-0.793-0.278-1.467-0.428c-0.739-0.159-1.357-0.33-1.853-0.513c-0.496-0.183-0.922-0.475-1.277-0.877
			s-0.533-0.945-0.533-1.629c0-0.599,0.164-1.139,0.491-1.621c0.328-0.481,0.816-0.863,1.467-1.144
			c0.65-0.281,1.448-0.422,2.394-0.422c0.646,0,1.282,0.073,1.909,0.218c0.627,0.146,1.179,0.358,1.657,0.639l-0.856,2.063
			c-0.936-0.505-1.844-0.758-2.724-0.758c-0.552,0-0.955,0.082-1.207,0.246c-0.253,0.163-0.379,0.377-0.379,0.639
			s0.149,0.458,0.449,0.589c0.299,0.132,0.781,0.268,1.446,0.407c0.749,0.159,1.369,0.33,1.86,0.513s0.917,0.473,1.277,0.87
			c0.36,0.398,0.541,0.938,0.541,1.622c0,0.589-0.164,1.123-0.491,1.6c-0.328,0.478-0.819,0.859-1.474,1.145
			c-0.655,0.285-1.451,0.428-2.386,0.428C65.096,55.853,64.324,55.755,63.575,55.558z"/>
		<path fill="#FFFFFF" d="M97.659,53.509v2.147h-7.89V45.83h7.707v2.147h-4.956v1.656h4.366v2.078h-4.366v1.797H97.659z"/>
		<path fill="#FFFFFF" d="M121.748,53.045h-1.516v2.611h-2.78V45.83h4.492c0.889,0,1.661,0.147,2.316,0.441
			c0.655,0.295,1.16,0.717,1.516,1.264c0.355,0.548,0.534,1.191,0.534,1.931c0,0.711-0.167,1.331-0.499,1.859
			c-0.333,0.529-0.807,0.943-1.425,1.243l2.12,3.088h-2.976L121.748,53.045z M123.067,48.399c-0.29-0.253-0.721-0.379-1.292-0.379
			h-1.544v2.878h1.544c0.571,0,1.001-0.124,1.292-0.372s0.436-0.602,0.436-1.06C123.503,49.007,123.357,48.652,123.067,48.399z"/>
		<path fill="#FFFFFF" d="M156.057,45.83l-4.211,9.826h-2.737l-4.197-9.826h3.004l2.667,6.401l2.724-6.401H156.057z"/>
		<path fill="#FFFFFF" d="M174.881,45.83h2.78v9.826h-2.78V45.83z"/>
		<path fill="#FFFFFF" d="M200.016,55.201c-0.819-0.436-1.462-1.041-1.931-1.818c-0.468-0.776-0.701-1.656-0.701-2.639
			s0.233-1.862,0.701-2.64c0.469-0.776,1.111-1.383,1.931-1.817c0.818-0.436,1.743-0.653,2.772-0.653
			c0.898,0,1.708,0.159,2.429,0.478s1.319,0.777,1.797,1.376l-1.769,1.601c-0.637-0.768-1.409-1.151-2.316-1.151
			c-0.533,0-1.009,0.117-1.425,0.351c-0.417,0.234-0.739,0.564-0.969,0.99s-0.344,0.914-0.344,1.467
			c0,0.552,0.114,1.041,0.344,1.467s0.552,0.756,0.969,0.989c0.416,0.234,0.892,0.352,1.425,0.352c0.907,0,1.68-0.384,2.316-1.151
			L207.014,54c-0.478,0.599-1.076,1.058-1.797,1.376c-0.721,0.317-1.53,0.477-2.429,0.477
			C201.759,55.853,200.835,55.635,200.016,55.201z"/>
		<path fill="#FFFFFF" d="M234.388,53.509v2.147h-7.89V45.83h7.707v2.147h-4.955v1.656h4.365v2.078h-4.365v1.797H234.388z"/>
	</g>
</g>
</svg>
