<?xml version="1.0" encoding="utf-8"?>
<!-- Generator: Adobe Illustrator 17.0.1, SVG Export Plug-In . SVG Version: 6.00 Build 0)  -->
<!DOCTYPE svg PUBLIC "-//W3C//DTD SVG 1.1//EN" "http://www.w3.org/Graphics/SVG/1.1/DTD/svg11.dtd">
<svg version="1.1" id="Слой_1" xmlns="http://www.w3.org/2000/svg" xmlns:xlink="http://www.w3.org/1999/xlink" x="0px" y="0px"
	 width="248.028px" height="283.46px" viewBox="173.626 0 248.028 283.46" enable-background="new 173.626 0 248.028 283.46"
	 xml:space="preserve">
<path fill="#FFFFFF" d="M235.633,124.014c34.27,0,62.007-27.737,62.007-62.007S269.903,0,235.633,0s-62.007,27.737-62.007,62.007
	S201.363,124.014,235.633,124.014z M235.633,35.433c14.671,0,26.574,11.903,26.574,26.574s-11.903,26.574-26.574,26.574
	s-26.574-11.903-26.574-26.574S220.962,35.433,235.633,35.433z M359.647,159.446c-34.27,0-62.007,27.737-62.007,62.007
	s27.737,62.007,62.007,62.007s62.007-27.737,62.007-62.007S393.917,159.446,359.647,159.446z M359.647,248.028
	c-14.671,0-26.574-11.903-26.574-26.574s11.903-26.574,26.574-26.574s26.574,11.903,26.574,26.574
	C386.221,236.124,374.318,248.028,359.647,248.028z M390.816,0.111l17.495-0.055c10.74-0.055,17.107,12.069,10.907,20.927
	l-202.74,256.72c-2.481,3.538-6.53,5.645-10.851,5.647l-18.491,0.055c-10.796,0-17.107-12.125-10.907-20.927L379.965,5.758
	C382.457,2.215,386.498,0.111,390.816,0.111z"/>
</svg>
