<?xml version="1.0" encoding="utf-8"?>
<!-- Generator: Adobe Illustrator 17.0.1, SVG Export Plug-In . SVG Version: 6.00 Build 0)  -->
<!DOCTYPE svg PUBLIC "-//W3C//DTD SVG 1.1//EN" "http://www.w3.org/Graphics/SVG/1.1/DTD/svg11.dtd">
<svg version="1.1" id="Слой_1" xmlns="http://www.w3.org/2000/svg" xmlns:xlink="http://www.w3.org/1999/xlink" x="0px" y="0px"
	 width="283.466px" height="283.466px" viewBox="155.904 -0.006 283.466 283.466"
	 enable-background="new 155.904 -0.006 283.466 283.466" xml:space="preserve">
<path d="M429.072,13.619L371.495,0.332c-6.256-1.439-12.678,1.827-15.225,7.695l-26.574,62.007
	c-2.325,5.426-0.775,11.792,3.82,15.502l33.55,27.46c-19.931,42.464-54.754,77.785-98.104,98.104l-27.46-33.55
	c-3.765-4.595-10.076-6.145-15.502-3.82l-62.007,26.574c-5.924,2.602-9.19,9.024-7.751,15.28l13.287,57.578
	c1.384,5.979,6.699,10.298,12.955,10.298c141.785,0,256.886-114.879,256.886-256.886C439.37,20.374,435.107,15.003,429.072,13.619z"
	/>
</svg>
